<svg xmlns="http://www.w3.org/2000/svg" xmlns:xlink="http://www.w3.org/1999/xlink" width="500" zoomAndPan="magnify" viewBox="0 0 375 374.999991" height="500" preserveAspectRatio="xMidYMid meet" version="1.0"><defs><g/><clipPath id="3b0e62d830"><path d="M 48.96875 152.78125 L 328.710938 152.78125 L 328.710938 233.03125 L 48.96875 233.03125 Z M 48.96875 152.78125 " clip-rule="nonzero"/></clipPath><clipPath id="8cd87e6456"><path d="M 58.800781 160.996094 L 190.050781 160.996094 L 190.050781 224.746094 L 58.800781 224.746094 Z M 58.800781 160.996094 " clip-rule="nonzero"/></clipPath></defs><g clip-path="url(#3b0e62d830)"><path stroke-linecap="butt" transform="matrix(0.750063, 0, 0, 0.752417, 48.968651, 152.780395)" fill="none" stroke-linejoin="miter" d="M 0.000132143 0.00113665 L 372.958495 0.00113665 L 372.958495 106.657393 L 0.000132143 106.657393 L 0.000132143 0.00113665 " stroke="#000000" stroke-width="6" stroke-opacity="1" stroke-miterlimit="4"/></g><g clip-path="url(#8cd87e6456)"><path fill="#000000" d="M 58.800781 160.996094 L 190.046875 160.996094 L 190.046875 224.746094 L 58.800781 224.746094 L 58.800781 160.996094 " fill-opacity="1" fill-rule="nonzero"/></g><g fill="#ffffff" fill-opacity="1"><g transform="translate(67.709192, 198.71617)"><g><path d="M 8.847656 0.277344 C 12.5 0.277344 15.464844 -1.933594 16.363281 -5.285156 L 14.367188 -5.285156 C 13.59375 -3.027344 11.46875 -1.609375 8.914062 -1.609375 C 5.5625 -1.609375 3.179688 -4.039062 3.179688 -7.515625 C 3.179688 -10.996094 5.5625 -13.421875 8.914062 -13.421875 C 11.402344 -13.421875 13.445312 -12.089844 14.21875 -9.921875 L 16.234375 -9.921875 C 15.25 -13.230469 12.390625 -15.3125 8.847656 -15.3125 C 4.425781 -15.3125 1.246094 -12.046875 1.246094 -7.515625 C 1.246094 -2.984375 4.425781 0.277344 8.847656 0.277344 Z M 8.847656 0.277344 "/></g></g></g><g fill="#ffffff" fill-opacity="1"><g transform="translate(86.866459, 198.71617)"><g><path d="M 9.019531 0.277344 C 13.59375 0.277344 16.816406 -2.941406 16.816406 -7.515625 C 16.816406 -12.089844 13.59375 -15.3125 9.019531 -15.3125 C 4.445312 -15.3125 1.246094 -12.089844 1.246094 -7.515625 C 1.246094 -2.941406 4.445312 0.277344 9.019531 0.277344 Z M 3.179688 -7.515625 C 3.179688 -11.015625 5.5625 -13.421875 9.019531 -13.421875 C 12.476562 -13.421875 14.863281 -11.015625 14.863281 -7.515625 C 14.863281 -4.015625 12.476562 -1.609375 9.019531 -1.609375 C 5.5625 -1.609375 3.179688 -4.015625 3.179688 -7.515625 Z M 3.179688 -7.515625 "/></g></g></g><g fill="#ffffff" fill-opacity="1"><g transform="translate(106.539151, 198.71617)"><g><path d="M 2.191406 0 L 7.386719 0 C 12.003906 0 15.097656 -3.070312 15.097656 -7.515625 C 15.097656 -11.960938 12.003906 -15.035156 7.386719 -15.035156 L 2.191406 -15.035156 Z M 4.082031 -1.804688 L 4.082031 -13.230469 L 7.300781 -13.230469 C 10.804688 -13.230469 13.164062 -10.929688 13.164062 -7.515625 C 13.164062 -4.101562 10.824219 -1.804688 7.386719 -1.804688 Z M 4.082031 -1.804688 "/></g></g></g><g fill="#ffffff" fill-opacity="1"><g transform="translate(124.515234, 198.71617)"><g><path d="M 2.191406 0 L 11.554688 0 L 11.554688 -1.761719 L 4.082031 -1.761719 L 4.082031 -6.785156 L 10.78125 -6.785156 L 10.78125 -8.527344 L 4.082031 -8.527344 L 4.082031 -13.273438 L 11.316406 -13.273438 L 11.316406 -15.035156 L 2.191406 -15.035156 Z M 2.191406 0 "/></g></g></g><g fill="#ffffff" fill-opacity="1"><g transform="translate(139.098102, 198.71617)"><g/></g></g><g fill="#ffffff" fill-opacity="1"><g transform="translate(146.056956, 198.71617)"><g><path d="M 2.191406 0 L 8.289062 0 C 11.316406 0 13.207031 -1.609375 13.207031 -4.210938 C 13.207031 -5.90625 12.371094 -7.171875 10.824219 -7.796875 C 12.046875 -8.417969 12.777344 -9.578125 12.777344 -11.039062 C 12.777344 -13.464844 10.886719 -15.035156 8.011719 -15.035156 L 2.191406 -15.035156 Z M 4.082031 -1.761719 L 4.082031 -6.808594 L 8.226562 -6.808594 C 10.179688 -6.808594 11.273438 -5.882812 11.273438 -4.296875 C 11.273438 -2.683594 10.179688 -1.761719 8.246094 -1.761719 Z M 4.082031 -8.527344 L 4.082031 -13.273438 L 7.96875 -13.273438 C 9.792969 -13.273438 10.84375 -12.414062 10.84375 -10.886719 C 10.84375 -9.386719 9.816406 -8.527344 7.96875 -8.527344 Z M 4.082031 -8.527344 "/></g></g></g><g fill="#ffffff" fill-opacity="1"><g transform="translate(162.10019, 198.71617)"><g><path d="M 6.011719 0 L 7.859375 0 L 7.859375 -5.410156 L 13.507812 -15.035156 L 11.382812 -15.035156 L 6.957031 -7.429688 L 5.003906 -10.824219 L 2.554688 -15.035156 L 0.363281 -15.035156 L 6.011719 -5.410156 Z M 6.011719 0 "/></g></g></g><g fill="#000000" fill-opacity="1"><g transform="translate(202.021119, 200.83298)"><g><path d="M 0.132812 0 L 5.820312 0 L 6.828125 -2.628906 L 13.179688 -2.628906 L 14.191406 0 L 19.902344 0 L 12.675781 -18.601562 L 7.359375 -18.601562 Z M 7.945312 -6.5625 L 10.019531 -12.328125 L 12.089844 -6.5625 Z M 7.945312 -6.5625 "/></g></g></g><g fill="#000000" fill-opacity="1"><g transform="translate(222.05217, 200.83298)"><g><path d="M 1.964844 0 L 7.28125 0 L 7.28125 -9.488281 L 14.347656 0 L 18.707031 0 L 18.707031 -18.601562 L 13.417969 -18.601562 L 13.417969 -9.167969 L 6.351562 -18.601562 L 1.964844 -18.601562 Z M 1.964844 0 "/></g></g></g><g fill="#000000" fill-opacity="1"><g transform="translate(242.747378, 200.83298)"><g><path d="M 1.964844 0 L 7.335938 0 L 7.335938 -18.601562 L 1.964844 -18.601562 Z M 1.964844 0 "/></g></g></g><g fill="#000000" fill-opacity="1"><g transform="translate(252.045611, 200.83298)"><g><path d="M 1.964844 0 L 15.011719 0 L 15.011719 -4.382812 L 7.28125 -4.382812 L 7.28125 -7.253906 L 14.003906 -7.253906 L 14.003906 -11.558594 L 7.28125 -11.558594 L 7.28125 -14.269531 L 14.722656 -14.269531 L 14.722656 -18.601562 L 1.964844 -18.601562 Z M 1.964844 0 "/></g></g></g><g fill="#000000" fill-opacity="1"><g transform="translate(268.251107, 200.83298)"><g><path d="M 6.402344 0 L 11.746094 0 L 11.746094 -13.632812 L 17.40625 -13.632812 L 17.40625 -18.601562 L 0.742188 -18.601562 L 0.742188 -13.632812 L 6.402344 -13.632812 Z M 6.402344 0 "/></g></g></g><g fill="#000000" fill-opacity="1"><g transform="translate(286.395942, 200.83298)"><g><path d="M 1.964844 0 L 7.335938 0 L 7.335938 -18.601562 L 1.964844 -18.601562 Z M 1.964844 0 "/></g></g></g><g fill="#000000" fill-opacity="1"><g transform="translate(295.694174, 200.83298)"><g><path d="M 1.964844 0 L 15.011719 0 L 15.011719 -4.382812 L 7.28125 -4.382812 L 7.28125 -7.253906 L 14.003906 -7.253906 L 14.003906 -11.558594 L 7.28125 -11.558594 L 7.28125 -14.269531 L 14.722656 -14.269531 L 14.722656 -18.601562 L 1.964844 -18.601562 Z M 1.964844 0 "/></g></g></g></svg>